G04 DipTrace 3.2.0.1*
G04 Top.gbr*
%MOIN*%
G04 #@! TF.FileFunction,Copper,L1,Top*
G04 #@! TF.Part,Single*
G04 #@! TA.AperFunction,Conductor*
%ADD13C,0.012992*%
%ADD14R,0.062992X0.070866*%
%ADD15R,0.11811X0.059055*%
%ADD16R,0.051181X0.059055*%
%ADD18R,0.177165X0.082677*%
%ADD19R,0.23622X0.19685*%
%ADD20R,0.137795X0.275591*%
%ADD22R,0.055118X0.03937*%
%ADD23R,0.275591X0.15748*%
%ADD24R,0.15748X0.275591*%
%ADD26R,0.037402X0.019685*%
%ADD27R,0.062992X0.106299*%
%ADD28R,0.07874X0.023622*%
%FSLAX26Y26*%
G04*
G70*
G90*
G75*
G01*
G04 Top*
%LPD*%
X2950000Y2000000D2*
D13*
X2943749D1*
Y2489714D1*
X2967520Y2513484D1*
X3380461D1*
X3406445Y2539469D1*
X3548031D1*
X3643749Y2443751D1*
Y799999D1*
X3561467Y717717D1*
X3366142D1*
X3308858Y775000D1*
X3250000D1*
X944490Y1358466D2*
Y1675983D1*
Y1849412D1*
X970471Y1875394D1*
X1101181D1*
X3380461Y2513484D2*
X3406448Y2487497D1*
Y2412500D1*
X3250000Y775000D2*
X3176051D1*
X3150066Y749014D1*
Y75472D1*
X3118344Y43751D1*
X588026D1*
X531303Y100472D1*
Y431299D1*
X587504Y487500D1*
X1143751D1*
X1263644Y607394D1*
X1570866D1*
X2024016D1*
X2050000Y581409D1*
X2300159D1*
X2418749Y700000D1*
Y1162501D1*
X2350000Y1231251D1*
X2337500D1*
X2250000D1*
Y1050000D1*
X944490Y1675983D2*
X918507Y1650000D1*
X250000D1*
X2337500Y1231251D2*
X2437205Y1330955D1*
Y1400000D1*
Y1454921D1*
X2411220Y1480906D1*
X2412845D1*
X2250000Y1643751D1*
Y1700000D1*
X3060236Y1400000D2*
Y1050000D1*
X3050000D1*
X1143751Y487500D2*
Y312500D1*
X1150000D1*
X2050000Y581409D2*
Y306251D1*
X2437205Y1400000D2*
X2600000D1*
X1570866Y607394D2*
X1544882Y633378D1*
Y775000D1*
X2250000Y1050000D2*
Y775000D1*
Y1231251D2*
Y1400000D1*
X1101181Y1875394D2*
X1231643D1*
X1653430Y2297181D1*
X1699016D1*
X1725000Y2323165D1*
Y2500000D1*
X250000Y625000D2*
X531303D1*
X587504Y568799D1*
Y487500D1*
X250000Y1650000D2*
X125000D1*
X62500Y1587500D1*
Y625000D1*
X250000D1*
X3250000Y875000D2*
X3293751D1*
X3308858Y859892D1*
Y775000D1*
X3050000Y1050000D2*
Y900984D1*
X3075984Y875000D1*
X3250000D1*
X2360236Y1050000D2*
Y775000D1*
Y728986D1*
X2318751Y687500D1*
X1937500D1*
X1900000Y725000D1*
Y750197D1*
Y1050000D2*
X1893751D1*
X1950984Y1107234D1*
Y1142766D1*
X1918749Y1175000D1*
Y1241371D1*
X1868701Y1291420D1*
Y1525000D1*
X1918749Y1175000D2*
X1645079D1*
X1600984Y1130906D1*
Y730265D1*
X1620226Y711024D1*
X1687416D1*
X1801392Y825000D1*
X1900000D1*
X1475000Y1525000D2*
Y1762500D1*
X1781251Y2068751D1*
X1931251D1*
X1956251Y2093751D1*
X2674999D1*
X2710236Y2058513D1*
Y2000000D1*
X1931251Y2068751D2*
X1935236Y2000000D1*
X1475000Y1762500D2*
Y1987500D1*
X1462500Y2000000D1*
X1475000D1*
X2360236Y1400000D2*
Y1433514D1*
X2306251Y1487500D1*
X2147232D1*
Y1075984D1*
X2121248Y1050000D1*
X2010236D1*
X2250000Y2000000D2*
X2150181D1*
X2068932Y1918751D1*
X1881251D1*
X1825000Y1975000D1*
Y2000000D1*
X2147232Y1487500D2*
Y1840449D1*
X2068932Y1918751D1*
X2332677Y1974407D2*
X2425249D1*
X2450843Y2000000D1*
X2600000D1*
Y1700000D2*
Y1668110D1*
X2761220Y1506890D1*
Y1319091D1*
X2735236Y1293106D1*
X2549357D1*
X2475000Y1218749D1*
Y293749D1*
X2306251Y125000D1*
X1943751D1*
X1865409Y203341D1*
Y463529D1*
X1797689Y531249D1*
X1535638D1*
X1425000Y420612D1*
Y250000D1*
X1301457Y126457D1*
X854794D1*
X675000Y306251D1*
Y312500D1*
X2600000Y2000000D2*
Y1700000D1*
X2250000Y1948814D2*
X2284836D1*
X2360236Y1873413D1*
Y1700000D1*
Y1652264D1*
X2505610Y1506890D1*
X2661861D1*
X2710236Y1458514D1*
Y1400000D1*
X2600000Y1075000D2*
Y1187500D1*
X2643751Y1231251D1*
X2756251D1*
X2825000Y1300000D1*
Y1509642D1*
X2710236Y1624406D1*
Y1700000D1*
X2950000D2*
Y1823740D1*
X3060236Y1933976D1*
Y2000000D1*
X2710236Y1700000D2*
X2950000D1*
X2939764Y1050000D2*
Y1037598D1*
X2690551D1*
X2939764Y1050000D2*
Y600984D1*
X2913780Y575000D1*
X2825000D1*
X2950000Y1400000D2*
X2939764D1*
Y1050000D1*
X2667520Y575000D2*
X2563762D1*
X2537778Y549016D1*
Y418751D1*
Y250278D1*
X2375000Y87500D1*
X1631251D1*
X1575000Y143751D1*
Y306251D1*
X2537778Y418751D2*
X2916786D1*
X3043749Y545714D1*
Y787499D1*
X3081251Y825000D1*
X3250000D1*
X3400000Y1400000D2*
Y1490266D1*
X3510236Y1600503D1*
Y1700000D1*
X3400000D2*
X3334843D1*
X3175000Y1540157D1*
Y1006251D1*
X3250000Y931251D1*
X3262501D1*
X3256251Y925000D1*
X3250000D1*
X3510236Y1400000D2*
X3512500D1*
Y956249D1*
X3481251Y925000D1*
X3462598D1*
Y775000D2*
X3535236D1*
X3587500Y827264D1*
Y1962500D1*
X3525000Y2025000D1*
X3510236D1*
Y1952362D1*
X3484252Y1926378D1*
X3206319D1*
X3180335Y1952362D1*
Y2344665D1*
X3100000Y2425000D1*
X3020472D1*
X3481251Y2412500D2*
Y2234106D1*
X3400000Y2152856D1*
Y2025000D1*
X2862992Y2425000D2*
X2730685D1*
X2622417Y2316732D1*
X2258268D1*
X2200000Y2375000D1*
Y2500000D1*
X1655118Y775000D2*
Y836367D1*
X1712500Y893751D1*
X1950000D1*
X2000000Y843751D1*
Y787598D1*
X1990551D1*
X1712500Y893751D2*
X1660236Y946014D1*
Y1050000D1*
X1550000D2*
X681251D1*
X631251Y1100000D1*
X299870D1*
X250000D1*
X681251Y1050000D2*
Y875394D1*
X646850D1*
X3462598Y825000D2*
X3400000D1*
X3334843Y890157D1*
Y1518427D1*
X3456249Y1639833D1*
Y1793751D1*
X3406249Y1843751D1*
X3181249D1*
X3137205Y1887795D1*
Y2054921D1*
X3111220Y2080906D1*
X3026969D1*
X3000984Y2054921D1*
Y1957235D1*
X2962500Y1918751D1*
X2877167D1*
X2824854Y1971063D1*
Y2050146D1*
X2696650Y2178350D1*
X1925000D1*
Y2575000D1*
X1800000Y2700000D1*
X1612500D1*
X1481249Y2568749D1*
Y2350000D1*
X1256251Y2125000D1*
X828941D1*
X250000D1*
X828941D2*
X875000Y2078941D1*
Y1918749D1*
X831644Y1875394D1*
X746850D1*
X1925000Y2178350D2*
X1684601D1*
X1585236Y2078986D1*
Y2000000D1*
X3181249Y1843751D2*
Y1770029D1*
X3111220Y1700000D1*
X3060236D1*
D14*
X3400000Y1400000D3*
X3510236D3*
D15*
X3020472Y2425000D3*
X2862992D3*
D14*
X1900000Y1050000D3*
X2010236D3*
D16*
X3481251Y2412500D3*
X3406448D3*
D14*
X2950000Y1400000D3*
X3060236D3*
D15*
X2825000Y575000D3*
X2667520D3*
D18*
X746850Y1875394D3*
X1101181D3*
D14*
X1550000Y1050000D3*
X1660236D3*
X2600000Y1700000D3*
X2710236D3*
Y1400000D3*
X2600000D3*
X2360236Y1050000D3*
X2250000D3*
D19*
X646850Y875393D3*
X1245375D3*
D20*
X944490Y1358466D3*
D22*
X2600000Y1075000D3*
Y1000197D3*
X2690551Y1037598D3*
D23*
X250000Y2125000D3*
Y1650000D3*
Y1100000D3*
Y625000D3*
D24*
X2200000Y2500000D3*
X1725000D3*
X675000Y312500D3*
X1150000D3*
X1575000Y306251D3*
X2050000D3*
X1475000Y1525000D3*
X1868701D3*
D22*
X1900000Y825000D3*
Y750197D3*
X1990551Y787598D3*
D26*
X2250000Y2000000D3*
Y1948814D3*
X2332677Y1974407D3*
D14*
X3400000Y1700000D3*
X3510236D3*
D27*
X3400000Y2025000D3*
X3510236D3*
D14*
X3050000Y1050000D3*
X2939764D3*
X2250000Y1400000D3*
X2360236D3*
X1825000Y2000000D3*
X1935236D3*
X2600000D3*
X2710236D3*
X1475000D3*
X1585236D3*
X2950000Y1700000D3*
X3060236D3*
X2950000Y2000000D3*
X3060236D3*
X2250000Y1700000D3*
X2360236D3*
X1544882Y775000D3*
X1655118D3*
X2250000D3*
X2360236D3*
D28*
X3250000Y925000D3*
Y875000D3*
Y825000D3*
Y775000D3*
X3462598D3*
Y825000D3*
Y875000D3*
Y925000D3*
M02*
