G04 DipTrace 3.2.0.1*
G04 TopMask.gbr*
%MOIN*%
G04 #@! TF.FileFunction,Soldermask,Top*
G04 #@! TF.Part,Single*
%ADD30R,0.086614X0.031496*%
%ADD32R,0.070866X0.114173*%
%ADD34R,0.045276X0.027559*%
%ADD36R,0.165354X0.283465*%
%ADD38R,0.283465X0.165354*%
%ADD40R,0.062992X0.047244*%
%ADD42R,0.145669X0.283465*%
%ADD44R,0.244094X0.204724*%
%ADD46R,0.185039X0.090551*%
%ADD48R,0.059055X0.066929*%
%ADD50R,0.125984X0.066929*%
%ADD52R,0.070866X0.07874*%
%FSLAX26Y26*%
G04*
G70*
G90*
G75*
G01*
G04 TopMask*
%LPD*%
D52*
X3400000Y1400000D3*
X3510236D3*
D50*
X3020472Y2425000D3*
X2862992D3*
D52*
X1900000Y1050000D3*
X2010236D3*
D48*
X3481251Y2412500D3*
X3406448D3*
D52*
X2950000Y1400000D3*
X3060236D3*
D50*
X2825000Y575000D3*
X2667520D3*
D46*
X746850Y1875394D3*
X1101181D3*
D52*
X1550000Y1050000D3*
X1660236D3*
X2600000Y1700000D3*
X2710236D3*
Y1400000D3*
X2600000D3*
X2360236Y1050000D3*
X2250000D3*
D44*
X646850Y875393D3*
X1245375D3*
D42*
X944490Y1358466D3*
D40*
X2600000Y1075000D3*
Y1000197D3*
X2690551Y1037598D3*
D38*
X250000Y2125000D3*
Y1650000D3*
Y1100000D3*
Y625000D3*
D36*
X2200000Y2500000D3*
X1725000D3*
X675000Y312500D3*
X1150000D3*
X1575000Y306251D3*
X2050000D3*
X1475000Y1525000D3*
X1868701D3*
D40*
X1900000Y825000D3*
Y750197D3*
X1990551Y787598D3*
D34*
X2250000Y2000000D3*
Y1948814D3*
X2332677Y1974407D3*
D52*
X3400000Y1700000D3*
X3510236D3*
D32*
X3400000Y2025000D3*
X3510236D3*
D52*
X3050000Y1050000D3*
X2939764D3*
X2250000Y1400000D3*
X2360236D3*
X1825000Y2000000D3*
X1935236D3*
X2600000D3*
X2710236D3*
X1475000D3*
X1585236D3*
X2950000Y1700000D3*
X3060236D3*
X2950000Y2000000D3*
X3060236D3*
X2250000Y1700000D3*
X2360236D3*
X1544882Y775000D3*
X1655118D3*
X2250000D3*
X2360236D3*
D30*
X3250000Y925000D3*
Y875000D3*
Y825000D3*
Y775000D3*
X3462598D3*
Y825000D3*
Y875000D3*
Y925000D3*
M02*
