G04 DipTrace 3.2.0.1*
G04 TopPaste.gbr*
%MOIN*%
G04 #@! TF.FileFunction,Paste,Top*
G04 #@! TF.Part,Single*
%ADD31R,0.070866X0.015748*%
%ADD33R,0.055118X0.098425*%
%ADD35R,0.029528X0.011811*%
%ADD37R,0.149606X0.267717*%
%ADD39R,0.267717X0.149606*%
%ADD41R,0.047244X0.031496*%
%ADD43R,0.129921X0.267717*%
%ADD45R,0.228346X0.188976*%
%ADD47R,0.169291X0.074803*%
%ADD49R,0.043307X0.051181*%
%ADD51R,0.110236X0.051181*%
%ADD53R,0.055118X0.062992*%
%FSLAX26Y26*%
G04*
G70*
G90*
G75*
G01*
G04 TopPaste*
%LPD*%
D53*
X3400000Y1400000D3*
X3510236D3*
D51*
X3020472Y2425000D3*
X2862992D3*
D53*
X1900000Y1050000D3*
X2010236D3*
D49*
X3481251Y2412500D3*
X3406448D3*
D53*
X2950000Y1400000D3*
X3060236D3*
D51*
X2825000Y575000D3*
X2667520D3*
D47*
X746850Y1875394D3*
X1101181D3*
D53*
X1550000Y1050000D3*
X1660236D3*
X2600000Y1700000D3*
X2710236D3*
Y1400000D3*
X2600000D3*
X2360236Y1050000D3*
X2250000D3*
D45*
X646850Y875393D3*
X1245375D3*
D43*
X944490Y1358466D3*
D41*
X2600000Y1075000D3*
Y1000197D3*
X2690551Y1037598D3*
D39*
X250000Y2125000D3*
Y1650000D3*
Y1100000D3*
Y625000D3*
D37*
X2200000Y2500000D3*
X1725000D3*
X675000Y312500D3*
X1150000D3*
X1575000Y306251D3*
X2050000D3*
X1475000Y1525000D3*
X1868701D3*
D41*
X1900000Y825000D3*
Y750197D3*
X1990551Y787598D3*
D35*
X2250000Y2000000D3*
Y1948814D3*
X2332677Y1974407D3*
D53*
X3400000Y1700000D3*
X3510236D3*
D33*
X3400000Y2025000D3*
X3510236D3*
D53*
X3050000Y1050000D3*
X2939764D3*
X2250000Y1400000D3*
X2360236D3*
X1825000Y2000000D3*
X1935236D3*
X2600000D3*
X2710236D3*
X1475000D3*
X1585236D3*
X2950000Y1700000D3*
X3060236D3*
X2950000Y2000000D3*
X3060236D3*
X2250000Y1700000D3*
X2360236D3*
X1544882Y775000D3*
X1655118D3*
X2250000D3*
X2360236D3*
D31*
X3250000Y925000D3*
Y875000D3*
Y825000D3*
Y775000D3*
X3462598D3*
Y825000D3*
Y875000D3*
Y925000D3*
M02*
