G04 DipTrace 3.2.0.1*
G04 TopSilk.gbr*
%MOIN*%
G04 #@! TF.FileFunction,Legend,Top*
G04 #@! TF.Part,Single*
%ADD10C,0.009843*%
%ADD17C,0.031465*%
%ADD21C,0.015412*%
%ADD25C,0.015418*%
%ADD54C,0.00772*%
%ADD55C,0.009264*%
%ADD56C,0.012351*%
%FSLAX26Y26*%
G04*
G70*
G90*
G75*
G01*
G04 TopSilk*
%LPD*%
X3450787Y1368535D2*
D10*
Y1431465D1*
X3443339Y1368535D2*
Y1431465D1*
Y1368535D2*
X3466898D1*
X3443339Y1431465D2*
X3466898D1*
X3046071Y2320669D2*
X2837394D1*
Y2529331D1*
X3046071D1*
Y2320669D1*
X2891740Y2325009D2*
X2841720Y2375005D1*
X2891740Y2524991D2*
X2841720Y2474995D1*
X1950787Y1018535D2*
Y1081465D1*
X1943339Y1018535D2*
Y1081465D1*
Y1018535D2*
X1966898D1*
X1943339Y1081465D2*
X1966898D1*
X3522610Y2438071D2*
Y2386929D1*
X3000787Y1368535D2*
Y1431465D1*
X2993339Y1368535D2*
Y1431465D1*
Y1368535D2*
X3016898D1*
X2993339Y1431465D2*
X3016898D1*
X2850598Y470669D2*
X2641921D1*
Y679331D1*
X2850598D1*
Y470669D1*
X2696268Y475009D2*
X2646248Y525005D1*
X2696268Y674991D2*
X2646248Y624995D1*
X1126781Y2078150D2*
Y1934436D1*
Y2078150D2*
X786199D1*
X1126781Y1816351D2*
Y1672638D1*
X786199D1*
X721250Y2013187D2*
Y1934436D1*
Y1816351D2*
Y1737601D1*
Y2013187D2*
X786199Y2078150D1*
X721250Y1737601D2*
X786199Y1672638D1*
D17*
X687819Y1946257D3*
X1600787Y1018535D2*
D10*
Y1081465D1*
X1593339Y1018535D2*
Y1081465D1*
Y1018535D2*
X1616898D1*
X1593339Y1081465D2*
X1616898D1*
X2650787Y1668535D2*
Y1731465D1*
X2643339Y1668535D2*
Y1731465D1*
Y1668535D2*
X2666898D1*
X2643339Y1731465D2*
X2666898D1*
X2659449Y1431465D2*
Y1368535D1*
X2666898Y1431465D2*
Y1368535D1*
Y1431465D2*
X2643339D1*
X2666898Y1368535D2*
X2643339D1*
X2309449Y1081465D2*
Y1018535D1*
X2316898Y1081465D2*
Y1018535D1*
Y1081465D2*
X2293339D1*
X2316898Y1018535D2*
X2293339D1*
X794523Y885588D2*
G02X794523Y885588I143743J0D01*
G01*
Y879363D2*
X1069488D1*
X706958Y1004297D2*
X844524Y1241867D1*
X1044529D2*
X1169491Y1004297D1*
D21*
X2585289Y1105849D3*
X2635428Y1096648D2*
D10*
Y978543D1*
X2655123D1*
Y1096648D1*
X2635428D1*
X100000Y2237500D2*
X425010D1*
Y1537500D1*
X450000Y2237500D2*
Y1537500D1*
X425010D2*
X100000D1*
X425010Y1887500D2*
X100000D1*
Y1212500D2*
X425010D1*
Y512500D1*
X450000Y1212500D2*
Y512500D1*
X425010D2*
X100000D1*
X425010Y862500D2*
X100000D1*
X2312500Y2650000D2*
Y2324990D1*
X1612500D1*
X2312500Y2300000D2*
X1612500D1*
Y2324990D2*
Y2650000D1*
X1962500Y2324990D2*
Y2650000D1*
X562500Y162500D2*
Y487510D1*
X1262500D1*
X562500Y512500D2*
X1262500D1*
Y487510D2*
Y162500D1*
X912500Y487510D2*
Y162500D1*
X1462500Y156251D2*
Y481261D1*
X2162500D1*
X1462500Y506251D2*
X2162500D1*
Y481261D2*
Y156251D1*
X1812500Y481261D2*
Y156251D1*
X1421835Y1775000D2*
X1921866D1*
Y1275000D1*
X1421835D1*
Y1775000D1*
D21*
X1885289Y855849D3*
X1935428Y846648D2*
D10*
Y728543D1*
X1955123D1*
Y846648D1*
X1935428D1*
D25*
X2247102Y2026906D3*
X2281504Y2013782D2*
D10*
Y1935035D1*
X2301173D1*
Y2013782D1*
X2281504D1*
X3443339Y1668535D2*
X3466898D1*
X3443339Y1731465D2*
X3466898D1*
X3443339Y2074217D2*
X3466898D1*
X3443339Y1975783D2*
X3466898D1*
X3006661Y1081465D2*
X2983102D1*
X3006661Y1018535D2*
X2983102D1*
X2293339Y1368535D2*
X2316898D1*
X2293339Y1431465D2*
X2316898D1*
X1868339Y1968535D2*
X1891898D1*
X1868339Y2031465D2*
X1891898D1*
X2643339Y1968535D2*
X2666898D1*
X2643339Y2031465D2*
X2666898D1*
X1518339Y1968535D2*
X1541898D1*
X1518339Y2031465D2*
X1541898D1*
X2993339Y1668535D2*
X3016898D1*
X2993339Y1731465D2*
X3016898D1*
X2993339Y1968535D2*
X3016898D1*
X2993339Y2031465D2*
X3016898D1*
X2293339Y1668535D2*
X2316898D1*
X2293339Y1731465D2*
X2316898D1*
X1588220Y743535D2*
X1611780D1*
X1588220Y806465D2*
X1611780D1*
X2293339Y743535D2*
X2316898D1*
X2293339Y806465D2*
X2316898D1*
X3305111Y948427D2*
Y751573D1*
X3407487Y948427D2*
Y751573D1*
X3305111D2*
X3407487D1*
X3336605Y948427D2*
X3305111D1*
X3375994D2*
X3407487D1*
X3336605D2*
G03X3375994Y948427I19694J9D01*
G01*
X3459337Y1496718D2*
D54*
X3456960Y1501471D1*
X3452152Y1506280D1*
X3447398Y1508656D1*
X3437837D1*
X3433028Y1506280D1*
X3428275Y1501471D1*
X3425843Y1496718D1*
X3423467Y1489533D1*
Y1477539D1*
X3425843Y1470410D1*
X3428275Y1465601D1*
X3433028Y1460848D1*
X3437837Y1458416D1*
X3447398D1*
X3452152Y1460848D1*
X3456960Y1465601D1*
X3459337Y1470410D1*
X3474776Y1499039D2*
X3479584Y1501471D1*
X3486769Y1508601D1*
Y1458416D1*
X2935201Y2590616D2*
X2932824Y2595369D1*
X2928016Y2600177D1*
X2923263Y2602554D1*
X2913701D1*
X2908893Y2600177D1*
X2904139Y2595369D1*
X2901708Y2590616D1*
X2899331Y2583431D1*
Y2571437D1*
X2901708Y2564307D1*
X2904139Y2559499D1*
X2908893Y2554746D1*
X2913701Y2552314D1*
X2923263D1*
X2928016Y2554746D1*
X2932824Y2559499D1*
X2935201Y2564307D1*
X2953072Y2590560D2*
Y2592937D1*
X2955449Y2597745D1*
X2957825Y2600122D1*
X2962634Y2602499D1*
X2972195D1*
X2976948Y2600122D1*
X2979325Y2597745D1*
X2981757Y2592937D1*
Y2588184D1*
X2979325Y2583375D1*
X2974572Y2576245D1*
X2950640Y2552314D1*
X2984134D1*
X1948587Y1146718D2*
X1946210Y1151471D1*
X1941402Y1156280D1*
X1936649Y1158656D1*
X1927087D1*
X1922278Y1156280D1*
X1917525Y1151471D1*
X1915093Y1146718D1*
X1912717Y1139533D1*
Y1127539D1*
X1915093Y1120410D1*
X1917525Y1115601D1*
X1922278Y1110848D1*
X1927087Y1108416D1*
X1936649D1*
X1941402Y1110848D1*
X1946210Y1115601D1*
X1948587Y1120410D1*
X1968834Y1158601D2*
X1995088D1*
X1980773Y1139478D1*
X1987958D1*
X1992711Y1137101D1*
X1995088Y1134724D1*
X1997519Y1127539D1*
Y1122786D1*
X1995088Y1115601D1*
X1990334Y1110793D1*
X1983149Y1108416D1*
X1975964D1*
X1968834Y1110793D1*
X1966458Y1113225D1*
X1964026Y1117978D1*
X3444014Y2503312D2*
X3441637Y2508066D1*
X3436829Y2512874D1*
X3432076Y2515251D1*
X3422514D1*
X3417706Y2512874D1*
X3412952Y2508066D1*
X3410521Y2503312D1*
X3408144Y2496127D1*
Y2484134D1*
X3410521Y2477004D1*
X3412952Y2472196D1*
X3417706Y2467442D1*
X3422514Y2465011D1*
X3432076D1*
X3436829Y2467442D1*
X3441637Y2472196D1*
X3444014Y2477004D1*
X3483385Y2465011D2*
Y2515195D1*
X3459453Y2481757D1*
X3495323D1*
X2998587Y1496718D2*
X2996210Y1501471D1*
X2991402Y1506280D1*
X2986649Y1508656D1*
X2977087D1*
X2972278Y1506280D1*
X2967525Y1501471D1*
X2965093Y1496718D1*
X2962717Y1489533D1*
Y1477539D1*
X2965093Y1470410D1*
X2967525Y1465601D1*
X2972278Y1460848D1*
X2977087Y1458416D1*
X2986649D1*
X2991402Y1460848D1*
X2996210Y1465601D1*
X2998587Y1470410D1*
X3042711Y1508601D2*
X3018834D1*
X3016458Y1487101D1*
X3018834Y1489478D1*
X3026020Y1491909D1*
X3033149D1*
X3040334Y1489478D1*
X3045143Y1484724D1*
X3047519Y1477539D1*
Y1472786D1*
X3045143Y1465601D1*
X3040334Y1460793D1*
X3033149Y1458416D1*
X3026020D1*
X3018834Y1460793D1*
X3016458Y1463225D1*
X3014026Y1467978D1*
X2740944Y740616D2*
X2738568Y745369D1*
X2733759Y750177D1*
X2729006Y752554D1*
X2719445D1*
X2714636Y750177D1*
X2709883Y745369D1*
X2707451Y740616D1*
X2705075Y733431D1*
Y721437D1*
X2707451Y714307D1*
X2709883Y709499D1*
X2714636Y704746D1*
X2719445Y702314D1*
X2729006D1*
X2733759Y704746D1*
X2738568Y709499D1*
X2740944Y714307D1*
X2785069Y745369D2*
X2782692Y750122D1*
X2775507Y752499D1*
X2770754D1*
X2763569Y750122D1*
X2758760Y742937D1*
X2756384Y730999D1*
Y719060D1*
X2758760Y709499D1*
X2763569Y704690D1*
X2770754Y702314D1*
X2773130D1*
X2780260Y704690D1*
X2785069Y709499D1*
X2787445Y716684D1*
Y719060D1*
X2785069Y726245D1*
X2780260Y730999D1*
X2773130Y733375D1*
X2770754D1*
X2763569Y730999D1*
X2758760Y726245D1*
X2756384Y719060D1*
X917512Y2139434D2*
X915135Y2144188D1*
X910327Y2148996D1*
X905574Y2151373D1*
X896012D1*
X891204Y2148996D1*
X886451Y2144188D1*
X884019Y2139434D1*
X881642Y2132249D1*
Y2120256D1*
X884019Y2113126D1*
X886451Y2108318D1*
X891204Y2103565D1*
X896012Y2101133D1*
X905574D1*
X910327Y2103565D1*
X915135Y2108318D1*
X917512Y2113126D1*
X944890Y2151317D2*
X937760Y2148941D1*
X935328Y2144188D1*
Y2139379D1*
X937760Y2134626D1*
X942513Y2132194D1*
X952075Y2129818D1*
X959260Y2127441D1*
X964013Y2122633D1*
X966389Y2117879D1*
Y2110694D1*
X964013Y2105941D1*
X961636Y2103509D1*
X954451Y2101133D1*
X944890D1*
X937760Y2103509D1*
X935328Y2105941D1*
X932951Y2110694D1*
Y2117879D1*
X935328Y2122633D1*
X940136Y2127441D1*
X947266Y2129818D1*
X956828Y2132194D1*
X961636Y2134626D1*
X964013Y2139379D1*
Y2144188D1*
X961636Y2148941D1*
X954451Y2151317D1*
X944890D1*
X1587247Y1146718D2*
X1584870Y1151471D1*
X1580062Y1156280D1*
X1575309Y1158656D1*
X1565747D1*
X1560939Y1156280D1*
X1556186Y1151471D1*
X1553754Y1146718D1*
X1551377Y1139533D1*
Y1127539D1*
X1553754Y1120410D1*
X1556186Y1115601D1*
X1560939Y1110848D1*
X1565747Y1108416D1*
X1575309D1*
X1580062Y1110848D1*
X1584870Y1115601D1*
X1587247Y1120410D1*
X1631426Y1134724D2*
X1626618Y1139533D1*
X1621810Y1141909D1*
X1614680D1*
X1609871Y1139533D1*
X1605118Y1134724D1*
X1602686Y1127539D1*
Y1122786D1*
X1605118Y1115601D1*
X1609871Y1110848D1*
X1614680Y1108416D1*
X1621810D1*
X1626618Y1110848D1*
X1631426Y1115601D1*
X1646866Y1149039D2*
X1651674Y1151471D1*
X1658859Y1158601D1*
Y1108416D1*
X2626497Y1796718D2*
X2624120Y1801471D1*
X2619312Y1806280D1*
X2614559Y1808656D1*
X2604997D1*
X2600189Y1806280D1*
X2595436Y1801471D1*
X2593004Y1796718D1*
X2590627Y1789533D1*
Y1777539D1*
X2593004Y1770410D1*
X2595436Y1765601D1*
X2600189Y1760848D1*
X2604997Y1758416D1*
X2614559D1*
X2619312Y1760848D1*
X2624120Y1765601D1*
X2626497Y1770410D1*
X2670676Y1784724D2*
X2665868Y1789533D1*
X2661060Y1791909D1*
X2653930D1*
X2649121Y1789533D1*
X2644368Y1784724D1*
X2641936Y1777539D1*
Y1772786D1*
X2644368Y1765601D1*
X2649121Y1760848D1*
X2653930Y1758416D1*
X2661060D1*
X2665868Y1760848D1*
X2670676Y1765601D1*
X2690924Y1808601D2*
X2717177D1*
X2702862Y1789478D1*
X2710047D1*
X2714801Y1787101D1*
X2717177Y1784724D1*
X2719609Y1777539D1*
Y1772786D1*
X2717177Y1765601D1*
X2712424Y1760793D1*
X2705239Y1758416D1*
X2698054D1*
X2690924Y1760793D1*
X2688548Y1763225D1*
X2686116Y1767978D1*
X2650991Y1496718D2*
X2648614Y1501471D1*
X2643806Y1506280D1*
X2639053Y1508656D1*
X2629491D1*
X2624683Y1506280D1*
X2619930Y1501471D1*
X2617498Y1496718D1*
X2615121Y1489533D1*
Y1477539D1*
X2617498Y1470410D1*
X2619930Y1465601D1*
X2624683Y1460848D1*
X2629491Y1458416D1*
X2639053D1*
X2643806Y1460848D1*
X2648614Y1465601D1*
X2650991Y1470410D1*
X2666430Y1477539D2*
X2695115D1*
Y1482348D1*
X2692739Y1487156D1*
X2690362Y1489533D1*
X2685554Y1491909D1*
X2678368D1*
X2673615Y1489533D1*
X2668807Y1484724D1*
X2666430Y1477539D1*
Y1472786D1*
X2668807Y1465601D1*
X2673615Y1460848D1*
X2678368Y1458416D1*
X2685554D1*
X2690362Y1460848D1*
X2695115Y1465601D1*
X2302179Y1146718D2*
X2299803Y1151471D1*
X2294994Y1156280D1*
X2290241Y1158656D1*
X2280679D1*
X2275871Y1156280D1*
X2271118Y1151471D1*
X2268686Y1146718D1*
X2266309Y1139533D1*
Y1127539D1*
X2268686Y1120410D1*
X2271118Y1115601D1*
X2275871Y1110848D1*
X2280679Y1108416D1*
X2290241D1*
X2294994Y1110848D1*
X2299803Y1115601D1*
X2302179Y1120410D1*
X2343927Y1134724D2*
X2341550Y1139533D1*
X2334365Y1141909D1*
X2327180D1*
X2319995Y1139533D1*
X2317619Y1134724D1*
X2319995Y1129971D1*
X2324804Y1127539D1*
X2336742Y1125163D1*
X2341550Y1122786D1*
X2343927Y1117978D1*
Y1115601D1*
X2341550Y1110848D1*
X2334365Y1108416D1*
X2327180D1*
X2319995Y1110848D1*
X2317619Y1115601D1*
X880553Y1557546D2*
X878176Y1562299D1*
X873368Y1567107D1*
X868615Y1569484D1*
X859053D1*
X854244Y1567107D1*
X849491Y1562299D1*
X847059Y1557546D1*
X844683Y1550361D1*
Y1538367D1*
X847059Y1531237D1*
X849491Y1526429D1*
X854244Y1521676D1*
X859053Y1519244D1*
X868615D1*
X873368Y1521676D1*
X878176Y1526429D1*
X880553Y1531237D1*
X912739Y1569484D2*
Y1519244D1*
X895992Y1569484D2*
X929485D1*
X944925Y1545552D2*
X966424D1*
X973609Y1547984D1*
X976041Y1550361D1*
X978418Y1555114D1*
Y1559922D1*
X976041Y1564675D1*
X973609Y1567107D1*
X966424Y1569484D1*
X944925D1*
Y1519244D1*
X961671Y1545552D2*
X978418Y1519244D1*
X993857Y1569484D2*
Y1519244D1*
X1047543D2*
Y1569484D1*
X1028420Y1519244D1*
X1009296Y1569484D1*
Y1519244D1*
X2614813Y1186774D2*
Y1136534D1*
X2631559D1*
X2638744Y1138966D1*
X2643553Y1143719D1*
X2645929Y1148528D1*
X2648306Y1155658D1*
Y1167651D1*
X2645929Y1174836D1*
X2643553Y1179589D1*
X2638744Y1184398D1*
X2631559Y1186774D1*
X2614813D1*
X2663745Y1177157D2*
X2668554Y1179589D1*
X2675739Y1186719D1*
Y1136534D1*
X273249Y2310723D2*
Y2272477D1*
X270873Y2265292D1*
X268441Y2262915D1*
X263688Y2260483D1*
X258879D1*
X254126Y2262915D1*
X251750Y2265292D1*
X249318Y2272477D1*
Y2277230D1*
X288689Y2301106D2*
X293497Y2303538D1*
X300682Y2310668D1*
Y2260483D1*
X95556Y1494233D2*
X117111D1*
X124241Y1496610D1*
X126673Y1499041D1*
X129049Y1503795D1*
Y1510980D1*
X126673Y1515733D1*
X124241Y1518165D1*
X117111Y1520541D1*
X95556D1*
Y1470301D1*
X158859Y1520541D2*
X154050Y1518165D1*
X149297Y1513356D1*
X146865Y1508603D1*
X144489Y1501418D1*
Y1489425D1*
X146865Y1482295D1*
X149297Y1477486D1*
X154050Y1472733D1*
X158859Y1470301D1*
X168420D1*
X173174Y1472733D1*
X177982Y1477486D1*
X180359Y1482295D1*
X182735Y1489425D1*
Y1501418D1*
X180359Y1508603D1*
X177982Y1513356D1*
X173174Y1518165D1*
X168420Y1520541D1*
X158859D1*
X198174D2*
X210168Y1470301D1*
X222106Y1520541D1*
X234044Y1470301D1*
X246038Y1520541D1*
X292539D2*
X261477D1*
Y1470301D1*
X292539D1*
X261477Y1496610D2*
X280600D1*
X307978D2*
X329478D1*
X336663Y1499041D1*
X339095Y1501418D1*
X341471Y1506171D1*
Y1510980D1*
X339095Y1515733D1*
X336663Y1518165D1*
X329478Y1520541D1*
X307978D1*
Y1470301D1*
X324724Y1496610D2*
X341471Y1470301D1*
X405511Y1520541D2*
Y1470301D1*
X454444Y1520541D2*
Y1470301D1*
X420951Y1520541D1*
Y1470301D1*
X262500Y1285723D2*
Y1247477D1*
X260123Y1240292D1*
X257691Y1237915D1*
X252938Y1235483D1*
X248129D1*
X243376Y1237915D1*
X241000Y1240292D1*
X238568Y1247477D1*
Y1252230D1*
X280371Y1273730D2*
Y1276106D1*
X282747Y1280915D1*
X285124Y1283291D1*
X289932Y1285668D1*
X299494D1*
X304247Y1283291D1*
X306624Y1280915D1*
X309056Y1276106D1*
Y1271353D1*
X306624Y1266545D1*
X301871Y1259415D1*
X277939Y1235483D1*
X311432D1*
X128487Y488356D2*
X123734Y493165D1*
X116549Y495541D1*
X106987D1*
X99802Y493165D1*
X94994Y488356D1*
Y483603D1*
X97426Y478795D1*
X99802Y476418D1*
X104555Y474041D1*
X118926Y469233D1*
X123734Y466856D1*
X126111Y464425D1*
X128487Y459671D1*
Y452486D1*
X123734Y447733D1*
X116549Y445301D1*
X106987D1*
X99802Y447733D1*
X94994Y452486D1*
X143926Y495541D2*
Y445301D1*
X195236Y483603D2*
X192859Y488356D1*
X188051Y493165D1*
X183297Y495541D1*
X173736D1*
X168927Y493165D1*
X164174Y488356D1*
X161742Y483603D1*
X159366Y476418D1*
Y464425D1*
X161742Y457295D1*
X164174Y452486D1*
X168927Y447733D1*
X173736Y445301D1*
X183297D1*
X188051Y447733D1*
X192859Y452486D1*
X195236Y457295D1*
Y464425D1*
X183297D1*
X244168Y495541D2*
Y445301D1*
X210675Y495541D1*
Y445301D1*
X297909D2*
X278731Y495541D1*
X259607Y445301D1*
X266792Y462048D2*
X290724D1*
X313348Y495541D2*
Y445301D1*
X342033D1*
X406074Y495541D2*
Y445301D1*
X455006Y495541D2*
Y445301D1*
X421513Y495541D1*
Y445301D1*
X1950000Y2723223D2*
Y2684977D1*
X1947623Y2677792D1*
X1945191Y2675415D1*
X1940438Y2672983D1*
X1935629D1*
X1930876Y2675415D1*
X1928500Y2677792D1*
X1926068Y2684977D1*
Y2689730D1*
X1970247Y2723168D2*
X1996500D1*
X1982185Y2704045D1*
X1989371D1*
X1994124Y2701668D1*
X1996500Y2699291D1*
X1998932Y2692106D1*
Y2687353D1*
X1996500Y2680168D1*
X1991747Y2675360D1*
X1984562Y2672983D1*
X1977377D1*
X1970247Y2675360D1*
X1967871Y2677792D1*
X1965439Y2682545D1*
X1772398Y2275856D2*
X1767644Y2280665D1*
X1760459Y2283041D1*
X1750898D1*
X1743713Y2280665D1*
X1738904Y2275856D1*
Y2271103D1*
X1741336Y2266295D1*
X1743713Y2263918D1*
X1748466Y2261541D1*
X1762836Y2256733D1*
X1767644Y2254356D1*
X1770021Y2251925D1*
X1772398Y2247171D1*
Y2239986D1*
X1767644Y2235233D1*
X1760459Y2232801D1*
X1750898D1*
X1743713Y2235233D1*
X1738904Y2239986D1*
X1787837Y2283041D2*
Y2232801D1*
X1839146Y2271103D2*
X1836769Y2275856D1*
X1831961Y2280665D1*
X1827208Y2283041D1*
X1817646D1*
X1812838Y2280665D1*
X1808085Y2275856D1*
X1805653Y2271103D1*
X1803276Y2263918D1*
Y2251925D1*
X1805653Y2244795D1*
X1808085Y2239986D1*
X1812838Y2235233D1*
X1817646Y2232801D1*
X1827208D1*
X1831961Y2235233D1*
X1836769Y2239986D1*
X1839146Y2244795D1*
Y2251925D1*
X1827208D1*
X1888079Y2283041D2*
Y2232801D1*
X1854585Y2283041D1*
Y2232801D1*
X1941820D2*
X1922641Y2283041D1*
X1903518Y2232801D1*
X1910703Y2249548D2*
X1934635D1*
X1957259Y2283041D2*
Y2232801D1*
X1985944D1*
X2064354Y2283041D2*
X2059546Y2280665D1*
X2054792Y2275856D1*
X2052361Y2271103D1*
X2049984Y2263918D1*
Y2251925D1*
X2052361Y2244795D1*
X2054792Y2239986D1*
X2059546Y2235233D1*
X2064354Y2232801D1*
X2073916D1*
X2078669Y2235233D1*
X2083477Y2239986D1*
X2085854Y2244795D1*
X2088231Y2251925D1*
Y2263918D1*
X2085854Y2271103D1*
X2083477Y2275856D1*
X2078669Y2280665D1*
X2073916Y2283041D1*
X2064354D1*
X2103670D2*
Y2247171D1*
X2106046Y2239986D1*
X2110855Y2235233D1*
X2118040Y2232801D1*
X2122793D1*
X2129978Y2235233D1*
X2134787Y2239986D1*
X2137163Y2247171D1*
Y2283041D1*
X2169349D2*
Y2232801D1*
X2152602Y2283041D2*
X2186096D1*
X898811Y585723D2*
Y547477D1*
X896435Y540292D1*
X894003Y537915D1*
X889250Y535483D1*
X884441D1*
X879688Y537915D1*
X877311Y540292D1*
X874880Y547477D1*
Y552230D1*
X938182Y535483D2*
Y585668D1*
X914251Y552230D1*
X950120D1*
X669919Y121610D2*
X691419D1*
X698604Y124041D1*
X701036Y126418D1*
X703413Y131171D1*
Y135980D1*
X701036Y140733D1*
X698604Y143165D1*
X691419Y145541D1*
X669919D1*
Y95301D1*
X686666Y121610D2*
X703413Y95301D1*
X749969Y145541D2*
X718852D1*
Y95301D1*
Y121610D2*
X737975D1*
X852311Y95301D2*
X833132Y145541D1*
X814009Y95301D1*
X821194Y112048D2*
X845126D1*
X905996Y95301D2*
Y145541D1*
X886873Y95301D1*
X867750Y145541D1*
Y95301D1*
X921436Y119233D2*
X942991D1*
X950120Y121610D1*
X952552Y124041D1*
X954929Y128795D1*
Y135980D1*
X952552Y140733D1*
X950120Y143165D1*
X942991Y145541D1*
X921436D1*
Y95301D1*
X1033339Y145541D2*
X1028531Y143165D1*
X1023778Y138356D1*
X1021346Y133603D1*
X1018969Y126418D1*
Y114425D1*
X1021346Y107295D1*
X1023778Y102486D1*
X1028531Y97733D1*
X1033339Y95301D1*
X1042901D1*
X1047654Y97733D1*
X1052462Y102486D1*
X1054839Y107295D1*
X1057216Y114425D1*
Y126418D1*
X1054839Y133603D1*
X1052462Y138356D1*
X1047654Y143165D1*
X1042901Y145541D1*
X1033339D1*
X1072655D2*
Y109671D1*
X1075031Y102486D1*
X1079840Y97733D1*
X1087025Y95301D1*
X1091778D1*
X1098963Y97733D1*
X1103772Y102486D1*
X1106148Y109671D1*
Y145541D1*
X1138334D2*
Y95301D1*
X1121587Y145541D2*
X1155081D1*
X1800000Y579474D2*
Y541227D1*
X1797623Y534042D1*
X1795191Y531666D1*
X1790438Y529234D1*
X1785629D1*
X1780876Y531666D1*
X1778500Y534042D1*
X1776068Y541227D1*
Y545980D1*
X1844124Y579418D2*
X1820247D1*
X1817871Y557919D1*
X1820247Y560295D1*
X1827432Y562727D1*
X1834562D1*
X1841747Y560295D1*
X1846556Y555542D1*
X1848932Y548357D1*
Y543604D1*
X1846556Y536419D1*
X1841747Y531610D1*
X1834562Y529234D1*
X1827432D1*
X1820247Y531610D1*
X1817871Y534042D1*
X1815439Y538795D1*
X1523280Y139292D2*
Y89052D1*
X1540027D1*
X1547212Y91484D1*
X1552020Y96237D1*
X1554397Y101045D1*
X1556774Y108175D1*
Y120169D1*
X1554397Y127354D1*
X1552020Y132107D1*
X1547212Y136915D1*
X1540027Y139292D1*
X1523280D1*
X1603274D2*
X1572213D1*
Y89052D1*
X1603274D1*
X1572213Y115360D2*
X1591336D1*
X1635460Y139292D2*
Y89052D1*
X1618714Y139292D2*
X1652207D1*
X1698708D2*
X1667646D1*
Y89052D1*
X1698708D1*
X1667646Y115360D2*
X1686769D1*
X1750017Y127354D2*
X1747640Y132107D1*
X1742832Y136915D1*
X1738079Y139292D1*
X1728517D1*
X1723709Y136915D1*
X1718955Y132107D1*
X1716524Y127354D1*
X1714147Y120169D1*
Y108175D1*
X1716524Y101045D1*
X1718955Y96237D1*
X1723709Y91484D1*
X1728517Y89052D1*
X1738079D1*
X1742832Y91484D1*
X1747640Y96237D1*
X1750017Y101045D1*
X1782203Y139292D2*
Y89052D1*
X1765456Y139292D2*
X1798949D1*
X1828759D2*
X1823950Y136915D1*
X1819197Y132107D1*
X1816765Y127354D1*
X1814389Y120169D1*
Y108175D1*
X1816765Y101045D1*
X1819197Y96237D1*
X1823950Y91484D1*
X1828759Y89052D1*
X1838320D1*
X1843074Y91484D1*
X1847882Y96237D1*
X1850259Y101045D1*
X1852635Y108175D1*
Y120169D1*
X1850259Y127354D1*
X1847882Y132107D1*
X1843074Y136915D1*
X1838320Y139292D1*
X1828759D1*
X1868074Y115360D2*
X1889574D1*
X1896759Y117792D1*
X1899191Y120169D1*
X1901568Y124922D1*
Y129730D1*
X1899191Y134484D1*
X1896759Y136915D1*
X1889574Y139292D1*
X1868074D1*
Y89052D1*
X1884821Y115360D2*
X1901568Y89052D1*
X1979978Y139292D2*
X1975170Y136915D1*
X1970416Y132107D1*
X1967985Y127354D1*
X1965608Y120169D1*
Y108175D1*
X1967985Y101045D1*
X1970416Y96237D1*
X1975170Y91484D1*
X1979978Y89052D1*
X1989540D1*
X1994293Y91484D1*
X1999101Y96237D1*
X2001478Y101045D1*
X2003855Y108175D1*
Y120169D1*
X2001478Y127354D1*
X1999101Y132107D1*
X1994293Y136915D1*
X1989540Y139292D1*
X1979978D1*
X2019294D2*
Y103422D1*
X2021670Y96237D1*
X2026479Y91484D1*
X2033664Y89052D1*
X2038417D1*
X2045602Y91484D1*
X2050411Y96237D1*
X2052787Y103422D1*
Y139292D1*
X2084973D2*
Y89052D1*
X2068226Y139292D2*
X2101720D1*
X1643792Y1848223D2*
Y1797983D1*
X1672476D1*
X1687916Y1838606D2*
X1692724Y1841038D1*
X1699909Y1848168D1*
Y1797983D1*
X1926778Y936774D2*
X1922025Y934453D1*
X1917217Y929644D1*
X1914840Y924836D1*
X1912408Y917651D1*
Y905713D1*
X1914840Y898528D1*
X1917217Y893775D1*
X1922025Y888966D1*
X1926778Y886590D1*
X1936340D1*
X1941148Y888966D1*
X1945902Y893775D1*
X1948278Y898528D1*
X1950710Y905713D1*
Y917651D1*
X1948278Y924836D1*
X1945902Y929644D1*
X1941148Y934453D1*
X1936340Y936774D1*
X1926778D1*
X1933963Y896151D2*
X1948278Y881781D1*
X1966149Y927157D2*
X1970958Y929589D1*
X1978143Y936719D1*
Y886534D1*
X2262091Y2107837D2*
X2257338Y2105515D1*
X2252530Y2100707D1*
X2250153Y2095898D1*
X2247721Y2088713D1*
Y2076775D1*
X2250153Y2069590D1*
X2252530Y2064837D1*
X2257338Y2060028D1*
X2262091Y2057652D1*
X2271653D1*
X2276462Y2060028D1*
X2281215Y2064837D1*
X2283591Y2069590D1*
X2286023Y2076775D1*
Y2088713D1*
X2283591Y2095898D1*
X2281215Y2100707D1*
X2276462Y2105515D1*
X2271653Y2107837D1*
X2262091D1*
X2269277Y2067213D2*
X2283591Y2052843D1*
X2303894Y2095843D2*
Y2098220D1*
X2306271Y2103028D1*
X2308647Y2105405D1*
X2313456Y2107781D1*
X2323018D1*
X2327771Y2105405D1*
X2330147Y2103028D1*
X2332579Y2098220D1*
Y2093467D1*
X2330147Y2088658D1*
X2325394Y2081528D1*
X2301462Y2057597D1*
X2334956D1*
X3424655Y1784724D2*
X3446155D1*
X3453340Y1787156D1*
X3455772Y1789533D1*
X3458148Y1794286D1*
Y1799095D1*
X3455772Y1803848D1*
X3453340Y1806280D1*
X3446155Y1808656D1*
X3424655D1*
Y1758416D1*
X3441402Y1784724D2*
X3458148Y1758416D1*
X3473588Y1799039D2*
X3478396Y1801471D1*
X3485581Y1808601D1*
Y1758416D1*
X3413905Y2127441D2*
X3435405D1*
X3442590Y2129873D1*
X3445022Y2132249D1*
X3447398Y2137003D1*
Y2141811D1*
X3445022Y2146564D1*
X3442590Y2148996D1*
X3435405Y2151373D1*
X3413905D1*
Y2101133D1*
X3430652Y2127441D2*
X3447398Y2101133D1*
X3465270Y2139379D2*
Y2141756D1*
X3467646Y2146564D1*
X3470023Y2148941D1*
X3474831Y2151317D1*
X3484393D1*
X3489146Y2148941D1*
X3491523Y2146564D1*
X3493954Y2141756D1*
Y2137003D1*
X3491523Y2132194D1*
X3486769Y2125064D1*
X3462838Y2101133D1*
X3496331D1*
X2953669Y1134724D2*
X2975169D1*
X2982354Y1137156D1*
X2984786Y1139533D1*
X2987162Y1144286D1*
Y1149095D1*
X2984786Y1153848D1*
X2982354Y1156280D1*
X2975169Y1158656D1*
X2953669D1*
Y1108416D1*
X2970416Y1134724D2*
X2987162Y1108416D1*
X3031286Y1158601D2*
X3007410D1*
X3005033Y1137101D1*
X3007410Y1139478D1*
X3014595Y1141909D1*
X3021725D1*
X3028910Y1139478D1*
X3033718Y1134724D1*
X3036095Y1127539D1*
Y1122786D1*
X3033718Y1115601D1*
X3028910Y1110793D1*
X3021725Y1108416D1*
X3014595D1*
X3007410Y1110793D1*
X3005033Y1113225D1*
X3002602Y1117978D1*
X2252593Y1484724D2*
X2274093D1*
X2281278Y1487156D1*
X2283710Y1489533D1*
X2286086Y1494286D1*
Y1499095D1*
X2283710Y1503848D1*
X2281278Y1506280D1*
X2274093Y1508656D1*
X2252593D1*
Y1458416D1*
X2269340Y1484724D2*
X2286086Y1458416D1*
X2301526Y1508656D2*
Y1458416D1*
Y1484724D2*
X2306334Y1489533D1*
X2311087Y1491909D1*
X2318272D1*
X2323025Y1489533D1*
X2327834Y1484724D1*
X2330210Y1477539D1*
Y1472786D1*
X2327834Y1465601D1*
X2323025Y1460848D1*
X2318272Y1458416D1*
X2311087D1*
X2306334Y1460848D1*
X2301526Y1465601D1*
X2345650Y1499039D2*
X2350458Y1501471D1*
X2357643Y1508601D1*
Y1458416D1*
X1816843Y2084724D2*
X1838343D1*
X1845528Y2087156D1*
X1847960Y2089533D1*
X1850336Y2094286D1*
Y2099095D1*
X1847960Y2103848D1*
X1845528Y2106280D1*
X1838343Y2108656D1*
X1816843D1*
Y2058416D1*
X1833590Y2084724D2*
X1850336Y2058416D1*
X1865776Y2108656D2*
Y2058416D1*
Y2084724D2*
X1870584Y2089533D1*
X1875337Y2091909D1*
X1882522D1*
X1887276Y2089533D1*
X1892084Y2084724D1*
X1894461Y2077539D1*
Y2072786D1*
X1892084Y2065601D1*
X1887276Y2060848D1*
X1882522Y2058416D1*
X1875337D1*
X1870584Y2060848D1*
X1865776Y2065601D1*
X1912332Y2096663D2*
Y2099039D1*
X1914708Y2103848D1*
X1917085Y2106224D1*
X1921893Y2108601D1*
X1931455D1*
X1936208Y2106224D1*
X1938585Y2103848D1*
X1941017Y2099039D1*
Y2094286D1*
X1938585Y2089478D1*
X1933832Y2082348D1*
X1909900Y2058416D1*
X1943393D1*
X2616282Y2084724D2*
X2637782D1*
X2644967Y2087156D1*
X2647398Y2089533D1*
X2649775Y2094286D1*
Y2099095D1*
X2647398Y2103848D1*
X2644967Y2106280D1*
X2637782Y2108656D1*
X2616282D1*
Y2058416D1*
X2633028Y2084724D2*
X2649775Y2058416D1*
X2693954Y2084724D2*
X2689146Y2089533D1*
X2684338Y2091909D1*
X2677208D1*
X2672399Y2089533D1*
X2667646Y2084724D1*
X2665214Y2077539D1*
Y2072786D1*
X2667646Y2065601D1*
X2672399Y2060848D1*
X2677208Y2058416D1*
X2684338D1*
X2689146Y2060848D1*
X2693954Y2065601D1*
X1488905Y2084724D2*
X1510405D1*
X1517590Y2087156D1*
X1520022Y2089533D1*
X1522398Y2094286D1*
Y2099095D1*
X1520022Y2103848D1*
X1517590Y2106280D1*
X1510405Y2108656D1*
X1488905D1*
Y2058416D1*
X1505652Y2084724D2*
X1522398Y2058416D1*
X1537838Y2108656D2*
Y2058416D1*
X1554584D1*
X1561769Y2060848D1*
X1566578Y2065601D1*
X1568954Y2070410D1*
X1571331Y2077539D1*
Y2089533D1*
X1568954Y2096718D1*
X1566578Y2101471D1*
X1561769Y2106280D1*
X1554584Y2108656D1*
X1537838D1*
X2952593Y1784724D2*
X2974093D1*
X2981278Y1787156D1*
X2983710Y1789533D1*
X2986086Y1794286D1*
Y1799095D1*
X2983710Y1803848D1*
X2981278Y1806280D1*
X2974093Y1808656D1*
X2952593D1*
Y1758416D1*
X2969340Y1784724D2*
X2986086Y1758416D1*
X3030210Y1808656D2*
Y1758416D1*
Y1784724D2*
X3025457Y1789533D1*
X3020649Y1791909D1*
X3013464D1*
X3008711Y1789533D1*
X3003902Y1784724D1*
X3001526Y1777539D1*
Y1772786D1*
X3003902Y1765601D1*
X3008711Y1760848D1*
X3013464Y1758416D1*
X3020649D1*
X3025457Y1760848D1*
X3030210Y1765601D1*
X3045650Y1799039D2*
X3050458Y1801471D1*
X3057643Y1808601D1*
Y1758416D1*
X2941843Y2084724D2*
X2963343D1*
X2970528Y2087156D1*
X2972960Y2089533D1*
X2975336Y2094286D1*
Y2099095D1*
X2972960Y2103848D1*
X2970528Y2106280D1*
X2963343Y2108656D1*
X2941843D1*
Y2058416D1*
X2958590Y2084724D2*
X2975336Y2058416D1*
X3019461Y2108656D2*
Y2058416D1*
Y2084724D2*
X3014707Y2089533D1*
X3009899Y2091909D1*
X3002714D1*
X2997961Y2089533D1*
X2993152Y2084724D1*
X2990776Y2077539D1*
Y2072786D1*
X2993152Y2065601D1*
X2997961Y2060848D1*
X3002714Y2058416D1*
X3009899D1*
X3014707Y2060848D1*
X3019461Y2065601D1*
X3037332Y2096663D2*
Y2099039D1*
X3039708Y2103848D1*
X3042085Y2106224D1*
X3046893Y2108601D1*
X3056455D1*
X3061208Y2106224D1*
X3063585Y2103848D1*
X3066017Y2099039D1*
Y2094286D1*
X3063585Y2089478D1*
X3058832Y2082348D1*
X3034900Y2058416D1*
X3068393D1*
X2266309Y1784724D2*
X2287809D1*
X2294994Y1787156D1*
X2297426Y1789533D1*
X2299803Y1794286D1*
Y1799095D1*
X2297426Y1803848D1*
X2294994Y1806280D1*
X2287809Y1808656D1*
X2266309D1*
Y1758416D1*
X2283056Y1784724D2*
X2299803Y1758416D1*
X2315242Y1777539D2*
X2343927D1*
Y1782348D1*
X2341550Y1787156D1*
X2339174Y1789533D1*
X2334365Y1791909D1*
X2327180D1*
X2322427Y1789533D1*
X2317619Y1784724D1*
X2315242Y1777539D1*
Y1772786D1*
X2317619Y1765601D1*
X2322427Y1760848D1*
X2327180Y1758416D1*
X2334365D1*
X2339174Y1760848D1*
X2343927Y1765601D1*
X1557599Y859724D2*
X1579099D1*
X1586284Y862156D1*
X1588715Y864533D1*
X1591092Y869286D1*
Y874095D1*
X1588715Y878848D1*
X1586284Y881280D1*
X1579099Y883656D1*
X1557599D1*
Y833416D1*
X1574345Y859724D2*
X1591092Y833416D1*
X1642401Y871718D2*
X1640025Y876471D1*
X1635216Y881280D1*
X1630463Y883656D1*
X1620901D1*
X1616093Y881280D1*
X1611340Y876471D1*
X1608908Y871718D1*
X1606531Y864533D1*
Y852539D1*
X1608908Y845410D1*
X1611340Y840601D1*
X1616093Y835848D1*
X1620901Y833416D1*
X1630463D1*
X1635216Y835848D1*
X1640025Y840601D1*
X1642401Y845410D1*
Y852539D1*
X1630463D1*
X2263905Y859724D2*
X2285405D1*
X2292590Y862156D1*
X2295022Y864533D1*
X2297398Y869286D1*
Y874095D1*
X2295022Y878848D1*
X2292590Y881280D1*
X2285405Y883656D1*
X2263905D1*
Y833416D1*
X2280652Y859724D2*
X2297398Y833416D1*
X2346331Y876471D2*
X2341578Y881280D1*
X2334393Y883656D1*
X2324831D1*
X2317646Y881280D1*
X2312838Y876471D1*
Y871718D1*
X2315270Y866909D1*
X2317646Y864533D1*
X2322399Y862156D1*
X2336769Y857348D1*
X2341578Y854971D1*
X2343954Y852539D1*
X2346331Y847786D1*
Y840601D1*
X2341578Y835848D1*
X2334393Y833416D1*
X2324831D1*
X2317646Y835848D1*
X2312838Y840601D1*
X3325836Y1021650D2*
Y985780D1*
X3328213Y978595D1*
X3333021Y973842D1*
X3340206Y971410D1*
X3344959D1*
X3352144Y973842D1*
X3356953Y978595D1*
X3359330Y985780D1*
Y1021650D1*
X3374769Y1012033D2*
X3379577Y1014465D1*
X3386762Y1021595D1*
Y971410D1*
X109186Y2662369D2*
D55*
X71913D1*
Y2602081D1*
X109186D1*
X71913Y2633651D2*
X94861D1*
X127713Y2662369D2*
Y2602081D1*
X162135D1*
X217936Y2662369D2*
X180662D1*
Y2602081D1*
X217936D1*
X180662Y2633651D2*
X203610D1*
X279507Y2648043D2*
X276655Y2653747D1*
X270885Y2659517D1*
X265181Y2662369D1*
X253707D1*
X247937Y2659517D1*
X242233Y2653747D1*
X239315Y2648043D1*
X236463Y2639421D1*
Y2625029D1*
X239315Y2616473D1*
X242233Y2610703D1*
X247937Y2604999D1*
X253707Y2602081D1*
X265181D1*
X270885Y2604999D1*
X276655Y2610703D1*
X279507Y2616473D1*
X362126Y2662302D2*
X393629D1*
X376451Y2639354D1*
X385074D1*
X390777Y2636503D1*
X393629Y2633651D1*
X396547Y2625029D1*
Y2619325D1*
X393629Y2610703D1*
X387925Y2604933D1*
X379303Y2602081D1*
X370681D1*
X362126Y2604933D1*
X359274Y2607851D1*
X356355Y2613555D1*
X432319Y2662302D2*
X423697Y2659450D1*
X417926Y2650828D1*
X415075Y2636503D1*
Y2627881D1*
X417926Y2613555D1*
X423697Y2604933D1*
X432319Y2602081D1*
X438022D1*
X446645Y2604933D1*
X452348Y2613555D1*
X455267Y2627881D1*
Y2636503D1*
X452348Y2650828D1*
X446645Y2659450D1*
X438022Y2662302D1*
X432319D1*
X452348Y2650828D2*
X417926Y2613555D1*
X479564Y2662302D2*
X511067D1*
X493890Y2639354D1*
X502512D1*
X508216Y2636503D1*
X511067Y2633651D1*
X513986Y2625029D1*
Y2619325D1*
X511067Y2610703D1*
X505364Y2604933D1*
X496742Y2602081D1*
X488120D1*
X479564Y2604933D1*
X476712Y2607851D1*
X473794Y2613555D1*
X549757Y2662302D2*
X541135Y2659450D1*
X535365Y2650828D1*
X532513Y2636503D1*
Y2627881D1*
X535365Y2613555D1*
X541135Y2604933D1*
X549757Y2602081D1*
X555461D1*
X564083Y2604933D1*
X569787Y2613555D1*
X572705Y2627881D1*
Y2636503D1*
X569787Y2650828D1*
X564083Y2659450D1*
X555461Y2662302D1*
X549757D1*
X569787Y2650828D2*
X535365Y2613555D1*
X695515Y2602081D2*
X672501Y2662369D1*
X649553Y2602081D1*
X658175Y2622177D2*
X686893D1*
X759938Y2602081D2*
Y2662369D1*
X736990Y2602081D1*
X714042Y2662369D1*
Y2602081D1*
X836786Y2633651D2*
X862586D1*
X871208Y2636569D1*
X874126Y2639421D1*
X876978Y2645125D1*
Y2650895D1*
X874126Y2656599D1*
X871208Y2659517D1*
X862586Y2662369D1*
X836786D1*
Y2602081D1*
X856882Y2633651D2*
X876978Y2602081D1*
X929927Y2642273D2*
Y2602081D1*
Y2633651D2*
X924224Y2639421D1*
X918453Y2642273D1*
X909898D1*
X904128Y2639421D1*
X898424Y2633651D1*
X895505Y2625029D1*
Y2619325D1*
X898424Y2610703D1*
X904128Y2604999D1*
X909898Y2602081D1*
X918453D1*
X924224Y2604999D1*
X929927Y2610703D1*
X982876Y2662369D2*
Y2602081D1*
Y2633651D2*
X977172Y2639421D1*
X971402Y2642273D1*
X962780D1*
X957076Y2639421D1*
X951306Y2633651D1*
X948454Y2625029D1*
Y2619325D1*
X951306Y2610703D1*
X957076Y2604999D1*
X962780Y2602081D1*
X971402D1*
X977172Y2604999D1*
X982876Y2610703D1*
X1001403Y2662369D2*
X1004255Y2659517D1*
X1007174Y2662369D1*
X1004255Y2665287D1*
X1001403Y2662369D1*
X1004255Y2642273D2*
Y2602081D1*
X1040026Y2642273D2*
X1034323Y2639421D1*
X1028553Y2633651D1*
X1025701Y2625029D1*
Y2619325D1*
X1028553Y2610703D1*
X1034323Y2604999D1*
X1040026Y2602081D1*
X1048649D1*
X1054419Y2604999D1*
X1060122Y2610703D1*
X1063041Y2619325D1*
Y2625029D1*
X1060122Y2633651D1*
X1054419Y2639421D1*
X1048649Y2642273D1*
X1040026D1*
X1159985Y2678087D2*
X1154215Y2672384D1*
X1148511Y2663762D1*
X1142741Y2652288D1*
X1139889Y2637895D1*
Y2626421D1*
X1142741Y2612096D1*
X1148511Y2600622D1*
X1154215Y2592000D1*
X1159985Y2586296D1*
X1218704Y2653747D2*
X1213000Y2659517D1*
X1204378Y2662369D1*
X1192904D1*
X1184282Y2659517D1*
X1178512Y2653747D1*
Y2648043D1*
X1181430Y2642273D1*
X1184282Y2639421D1*
X1189986Y2636569D1*
X1207230Y2630799D1*
X1213000Y2627947D1*
X1215852Y2625029D1*
X1218704Y2619325D1*
Y2610703D1*
X1213000Y2604999D1*
X1204378Y2602081D1*
X1192904D1*
X1184282Y2604999D1*
X1178512Y2610703D1*
X1237231Y2642273D2*
Y2581985D1*
Y2633651D2*
X1243001Y2639354D1*
X1248705Y2642273D1*
X1257327D1*
X1263097Y2639354D1*
X1268801Y2633651D1*
X1271719Y2625029D1*
Y2619258D1*
X1268801Y2610703D1*
X1263097Y2604933D1*
X1257327Y2602081D1*
X1248705D1*
X1243001Y2604933D1*
X1237231Y2610703D1*
X1290246Y2642273D2*
Y2602081D1*
Y2625029D2*
X1293165Y2633651D1*
X1298869Y2639421D1*
X1304639Y2642273D1*
X1313261D1*
X1404501Y2662302D2*
X1390109Y2645058D1*
X1407353Y2659450D1*
X1404501Y2662302D1*
X1425880Y2650828D2*
X1431650Y2653747D1*
X1440272Y2662302D1*
Y2602081D1*
X1473125Y2662302D2*
X1464570Y2659450D1*
X1461651Y2653747D1*
Y2647977D1*
X1464570Y2642273D1*
X1470273Y2639354D1*
X1481747Y2636503D1*
X1490369Y2633651D1*
X1496073Y2627881D1*
X1498925Y2622177D1*
Y2613555D1*
X1496073Y2607851D1*
X1493221Y2604933D1*
X1484599Y2602081D1*
X1473125D1*
X1464570Y2604933D1*
X1461651Y2607851D1*
X1458799Y2613555D1*
Y2622177D1*
X1461651Y2627881D1*
X1467421Y2633651D1*
X1475977Y2636503D1*
X1487451Y2639354D1*
X1493221Y2642273D1*
X1496073Y2647977D1*
Y2653747D1*
X1493221Y2659450D1*
X1484599Y2662302D1*
X1473125D1*
X1517452Y2678087D2*
X1523222Y2672384D1*
X1528926Y2663762D1*
X1534696Y2652288D1*
X1537548Y2637895D1*
Y2626421D1*
X1534696Y2612096D1*
X1528926Y2600622D1*
X1523222Y2592000D1*
X1517452Y2586296D1*
X117875Y2477081D2*
X94861Y2537369D1*
X71913Y2477081D1*
X80535Y2497177D2*
X109253D1*
X136402Y2517273D2*
Y2488555D1*
X139254Y2479999D1*
X145024Y2477081D1*
X153646D1*
X159350Y2479999D1*
X167972Y2488555D1*
Y2517273D2*
Y2477081D1*
X186499Y2537369D2*
Y2477081D1*
Y2508651D2*
X192269Y2514421D1*
X197973Y2517273D1*
X206595D1*
X212299Y2514421D1*
X218069Y2508651D1*
X220921Y2500029D1*
Y2494325D1*
X218069Y2485703D1*
X212299Y2479999D1*
X206595Y2477081D1*
X197973D1*
X192269Y2479999D1*
X186499Y2485703D1*
X239448Y2517273D2*
Y2488555D1*
X242300Y2479999D1*
X248070Y2477081D1*
X256692D1*
X262396Y2479999D1*
X271018Y2488555D1*
Y2517273D2*
Y2477081D1*
X289545Y2517273D2*
Y2477081D1*
Y2500029D2*
X292463Y2508651D1*
X298167Y2514421D1*
X303937Y2517273D1*
X312559D1*
X331086D2*
Y2477081D1*
Y2505799D2*
X339708Y2514421D1*
X345478Y2517273D1*
X354034D1*
X359804Y2514421D1*
X362656Y2505799D1*
Y2477081D1*
X439504Y2537369D2*
Y2494325D1*
X442356Y2485703D1*
X448127Y2479999D1*
X456749Y2477081D1*
X462452D1*
X471074Y2479999D1*
X476845Y2485703D1*
X479696Y2494325D1*
Y2537369D1*
X498224Y2517273D2*
Y2477081D1*
Y2505799D2*
X506846Y2514421D1*
X512616Y2517273D1*
X521171D1*
X526942Y2514421D1*
X529794Y2505799D1*
Y2477081D1*
X548321Y2537369D2*
X551173Y2534517D1*
X554091Y2537369D1*
X551173Y2540287D1*
X548321Y2537369D1*
X551173Y2517273D2*
Y2477081D1*
X572618Y2517273D2*
X589862Y2477081D1*
X607040Y2517273D1*
X625567Y2500029D2*
X659989D1*
Y2505799D1*
X657137Y2511569D1*
X654285Y2514421D1*
X648515Y2517273D1*
X639893D1*
X634189Y2514421D1*
X628419Y2508651D1*
X625567Y2500029D1*
Y2494325D1*
X628419Y2485703D1*
X634189Y2479999D1*
X639893Y2477081D1*
X648515D1*
X654285Y2479999D1*
X659989Y2485703D1*
X678516Y2517273D2*
Y2477081D1*
Y2500029D2*
X681434Y2508651D1*
X687138Y2514421D1*
X692908Y2517273D1*
X701530D1*
X751627Y2508651D2*
X748775Y2514421D1*
X740153Y2517273D1*
X731531D1*
X722909Y2514421D1*
X720057Y2508651D1*
X722909Y2502947D1*
X728679Y2500029D1*
X743005Y2497177D1*
X748775Y2494325D1*
X751627Y2488555D1*
Y2485703D1*
X748775Y2479999D1*
X740153Y2477081D1*
X731531D1*
X722909Y2479999D1*
X720057Y2485703D1*
X770154Y2537369D2*
X773006Y2534517D1*
X775924Y2537369D1*
X773006Y2540287D1*
X770154Y2537369D1*
X773006Y2517273D2*
Y2477081D1*
X803073Y2537369D2*
Y2488555D1*
X805925Y2479999D1*
X811695Y2477081D1*
X817399D1*
X794451Y2517273D2*
X814547D1*
X838845D2*
X856022Y2477081D1*
X850319Y2465607D1*
X844548Y2459837D1*
X838845Y2456985D1*
X835926D1*
X873266Y2517273D2*
X856022Y2477081D1*
X2367808Y227081D2*
Y287369D1*
X2344861Y227081D1*
X2321913Y287369D1*
Y227081D1*
X2420757Y267273D2*
Y227081D1*
Y258651D2*
X2415054Y264421D1*
X2409283Y267273D1*
X2400728D1*
X2394958Y264421D1*
X2389254Y258651D1*
X2386336Y250029D1*
Y244325D1*
X2389254Y235703D1*
X2394958Y229999D1*
X2400728Y227081D1*
X2409283D1*
X2415054Y229999D1*
X2420757Y235703D1*
X2447907Y287369D2*
Y238555D1*
X2450758Y229999D1*
X2456529Y227081D1*
X2462232D1*
X2439284Y267273D2*
X2459380D1*
X2489382Y287369D2*
Y238555D1*
X2492233Y229999D1*
X2498004Y227081D1*
X2503707D1*
X2480759Y267273D2*
X2500856D1*
X2522235Y287369D2*
Y227081D1*
Y255799D2*
X2530857Y264421D1*
X2536627Y267273D1*
X2545249D1*
X2550953Y264421D1*
X2553804Y255799D1*
Y227081D1*
X2572332Y250029D2*
X2606753D1*
Y255799D1*
X2603902Y261569D1*
X2601050Y264421D1*
X2595279Y267273D1*
X2586657D1*
X2580954Y264421D1*
X2575183Y258651D1*
X2572332Y250029D1*
Y244325D1*
X2575183Y235703D1*
X2580954Y229999D1*
X2586657Y227081D1*
X2595279D1*
X2601050Y229999D1*
X2606753Y235703D1*
X2625281Y267273D2*
X2636754Y227081D1*
X2648228Y267273D1*
X2659702Y227081D1*
X2671176Y267273D1*
X2791069Y273043D2*
X2788217Y278747D1*
X2782446Y284517D1*
X2776743Y287369D1*
X2765269D1*
X2759499Y284517D1*
X2753795Y278747D1*
X2750877Y273043D1*
X2748025Y264421D1*
Y250029D1*
X2750877Y241473D1*
X2753795Y235703D1*
X2759499Y229999D1*
X2765269Y227081D1*
X2776743D1*
X2782446Y229999D1*
X2788217Y235703D1*
X2791069Y241473D1*
X2844017Y267273D2*
Y227081D1*
Y258651D2*
X2838314Y264421D1*
X2832544Y267273D1*
X2823988D1*
X2818218Y264421D1*
X2812514Y258651D1*
X2809596Y250029D1*
Y244325D1*
X2812514Y235703D1*
X2818218Y229999D1*
X2823988Y227081D1*
X2832544D1*
X2838314Y229999D1*
X2844017Y235703D1*
X2894115Y258651D2*
X2891263Y264421D1*
X2882641Y267273D1*
X2874019D1*
X2865396Y264421D1*
X2862545Y258651D1*
X2865396Y252947D1*
X2871167Y250029D1*
X2885492Y247177D1*
X2891263Y244325D1*
X2894115Y238555D1*
Y235703D1*
X2891263Y229999D1*
X2882641Y227081D1*
X2874019D1*
X2865396Y229999D1*
X2862545Y235703D1*
X2921264Y287369D2*
Y238555D1*
X2924116Y229999D1*
X2929886Y227081D1*
X2935590D1*
X2912642Y267273D2*
X2932738D1*
X2954117Y287369D2*
Y227081D1*
X2972644Y250029D2*
X3007066D1*
Y255799D1*
X3004214Y261569D1*
X3001362Y264421D1*
X2995592Y267273D1*
X2986970D1*
X2981266Y264421D1*
X2975496Y258651D1*
X2972644Y250029D1*
Y244325D1*
X2975496Y235703D1*
X2981266Y229999D1*
X2986970Y227081D1*
X2995592D1*
X3001362Y229999D1*
X3007066Y235703D1*
X3025593Y287369D2*
Y227081D1*
Y258651D2*
X3031363Y264421D1*
X3037067Y267273D1*
X3045689D1*
X3051393Y264421D1*
X3057163Y258651D1*
X3060015Y250029D1*
Y244325D1*
X3057163Y235703D1*
X3051393Y229999D1*
X3045689Y227081D1*
X3037067D1*
X3031363Y229999D1*
X3025593Y235703D1*
X3078542Y250029D2*
X3112964D1*
Y255799D1*
X3110112Y261569D1*
X3107260Y264421D1*
X3101490Y267273D1*
X3092868D1*
X3087164Y264421D1*
X3081394Y258651D1*
X3078542Y250029D1*
Y244325D1*
X3081394Y235703D1*
X3087164Y229999D1*
X3092868Y227081D1*
X3101490D1*
X3107260Y229999D1*
X3112964Y235703D1*
X3131491Y267273D2*
Y227081D1*
Y250029D2*
X3134409Y258651D1*
X3140113Y264421D1*
X3145883Y267273D1*
X3154505D1*
X3173032D2*
Y227081D1*
Y250029D2*
X3175950Y258651D1*
X3181654Y264421D1*
X3187424Y267273D1*
X3196046D1*
X3217491D2*
X3234669Y227081D1*
X3228965Y215607D1*
X3223195Y209837D1*
X3217491Y206985D1*
X3214573D1*
X3251913Y267273D2*
X3234669Y227081D1*
X3383279Y267273D2*
X3380361D1*
X3377509Y264354D1*
X3374657Y258651D1*
X3368887Y244325D1*
X3363183Y235703D1*
X3357480Y229933D1*
X3351710Y227081D1*
X3340236D1*
X3334532Y229933D1*
X3331614Y232851D1*
X3328762Y238555D1*
Y244325D1*
X3331614Y250029D1*
X3334532Y252881D1*
X3354561Y264354D1*
X3357480Y267273D1*
X3360332Y272977D1*
Y278747D1*
X3357480Y284450D1*
X3351710Y287302D1*
X3346006Y284450D1*
X3343087Y278747D1*
Y272977D1*
X3346006Y264354D1*
X3351710Y255799D1*
X3366035Y235703D1*
X3371806Y229933D1*
X3377509Y227081D1*
X3383279D1*
X2350631Y162369D2*
Y116473D1*
X2347779Y107851D1*
X2344861Y104999D1*
X2339157Y102081D1*
X2333387D1*
X2327683Y104999D1*
X2324831Y107851D1*
X2321913Y116473D1*
Y122177D1*
X2383484Y142273D2*
X2377780Y139421D1*
X2372010Y133651D1*
X2369158Y125029D1*
Y119325D1*
X2372010Y110703D1*
X2377780Y104999D1*
X2383484Y102081D1*
X2392106D1*
X2397876Y104999D1*
X2403580Y110703D1*
X2406498Y119325D1*
Y125029D1*
X2403580Y133651D1*
X2397876Y139421D1*
X2392106Y142273D1*
X2383484D1*
X2456595Y133651D2*
X2453743Y139421D1*
X2445121Y142273D1*
X2436499D1*
X2427877Y139421D1*
X2425025Y133651D1*
X2427877Y127947D1*
X2433647Y125029D1*
X2447973Y122177D1*
X2453743Y119325D1*
X2456595Y113555D1*
Y110703D1*
X2453743Y104999D1*
X2445121Y102081D1*
X2436499D1*
X2427877Y104999D1*
X2425025Y110703D1*
X2475122Y162369D2*
Y102081D1*
Y130799D2*
X2483744Y139421D1*
X2489514Y142273D1*
X2498136D1*
X2503840Y139421D1*
X2506692Y130799D1*
Y102081D1*
X2612258Y162369D2*
Y116473D1*
X2609406Y107851D1*
X2606488Y104999D1*
X2600784Y102081D1*
X2595014D1*
X2589310Y104999D1*
X2586458Y107851D1*
X2583540Y116473D1*
Y122177D1*
X2665207Y142273D2*
Y102081D1*
Y133651D2*
X2659503Y139421D1*
X2653733Y142273D1*
X2645178D1*
X2639407Y139421D1*
X2633704Y133651D1*
X2630785Y125029D1*
Y119325D1*
X2633704Y110703D1*
X2639407Y104999D1*
X2645178Y102081D1*
X2653733D1*
X2659503Y104999D1*
X2665207Y110703D1*
X2683734Y162369D2*
Y102081D1*
Y133651D2*
X2689504Y139421D1*
X2695208Y142273D1*
X2703830D1*
X2709534Y139421D1*
X2715304Y133651D1*
X2718156Y125029D1*
Y119325D1*
X2715304Y110703D1*
X2709534Y104999D1*
X2703830Y102081D1*
X2695208D1*
X2689504Y104999D1*
X2683734Y110703D1*
X2736683Y162369D2*
Y102081D1*
X2769536Y142273D2*
X2763832Y139421D1*
X2758062Y133651D1*
X2755210Y125029D1*
Y119325D1*
X2758062Y110703D1*
X2763832Y104999D1*
X2769536Y102081D1*
X2778158D1*
X2783928Y104999D1*
X2789632Y110703D1*
X2792550Y119325D1*
Y125029D1*
X2789632Y133651D1*
X2783928Y139421D1*
X2778158Y142273D1*
X2769536D1*
X2811078D2*
Y102081D1*
Y130799D2*
X2819700Y139421D1*
X2825470Y142273D1*
X2834025D1*
X2839796Y139421D1*
X2842648Y130799D1*
Y102081D1*
X2875500Y142273D2*
X2869797Y139421D1*
X2864027Y133651D1*
X2861175Y125029D1*
Y119325D1*
X2864027Y110703D1*
X2869797Y104999D1*
X2875500Y102081D1*
X2884123D1*
X2889893Y104999D1*
X2895596Y110703D1*
X2898515Y119325D1*
Y125029D1*
X2895596Y133651D1*
X2889893Y139421D1*
X2884123Y142273D1*
X2875500D1*
X2917042D2*
X2928516Y102081D1*
X2939990Y142273D1*
X2951464Y102081D1*
X2962938Y142273D1*
X3013035Y133651D2*
X3010183Y139421D1*
X3001561Y142273D1*
X2992939D1*
X2984317Y139421D1*
X2981465Y133651D1*
X2984317Y127947D1*
X2990087Y125029D1*
X3004413Y122177D1*
X3010183Y119325D1*
X3013035Y113555D1*
Y110703D1*
X3010183Y104999D1*
X3001561Y102081D1*
X2992939D1*
X2984317Y104999D1*
X2981465Y110703D1*
X3031562Y162369D2*
Y102081D1*
X3060280Y142273D2*
X3031562Y113555D1*
X3043036Y125029D2*
X3063132Y102081D1*
X3081659Y162369D2*
X3084511Y159517D1*
X3087429Y162369D1*
X3084511Y165287D1*
X3081659Y162369D1*
X3084511Y142273D2*
Y102081D1*
X292089Y1971944D2*
D56*
X223201D1*
X257601Y2006344D2*
Y1937456D1*
X257645Y1831344D2*
Y1787129D1*
X292089Y946944D2*
X223201D1*
X257601Y981344D2*
Y912456D1*
X257645Y806344D2*
Y762129D1*
X2046944Y2457911D2*
Y2526799D1*
X2081344Y2492399D2*
X2012456D1*
X1906344Y2492355D2*
X1862129D1*
X828055Y354589D2*
Y285701D1*
X793656Y320101D2*
X862544D1*
X968656Y320145D2*
X1012871D1*
X1728055Y348340D2*
Y279452D1*
X1693656Y313851D2*
X1762544D1*
X1868656Y313896D2*
X1912871D1*
M02*
