G04 DipTrace 3.2.0.1*
G04 TopMask.gbr*
%MOIN*%
G04 #@! TF.FileFunction,Soldermask,Top*
G04 #@! TF.Part,Single*
%ADD30R,0.086614X0.031496*%
%ADD32R,0.070866X0.114173*%
%ADD34R,0.045276X0.027559*%
%ADD36R,0.165354X0.283465*%
%ADD38R,0.283465X0.165354*%
%ADD40R,0.062992X0.047244*%
%ADD42R,0.145669X0.283465*%
%ADD44R,0.244094X0.204724*%
%ADD46R,0.185039X0.090551*%
%ADD48R,0.059055X0.066929*%
%ADD50R,0.125984X0.066929*%
%ADD52R,0.070866X0.07874*%
%FSLAX26Y26*%
G04*
G70*
G90*
G75*
G01*
G04 TopMask*
%LPD*%
D52*
X3793701Y1793701D3*
X3903937D3*
D50*
X3414173Y2818701D3*
X3256693D3*
D52*
X2293701Y1443701D3*
X2403937D3*
D48*
X3874951Y2806201D3*
X3800148D3*
D52*
X3343701Y1793701D3*
X3453937D3*
D50*
X3218701Y968701D3*
X3061220D3*
D46*
X1140551Y2269094D3*
X1494882D3*
D52*
X1943701Y1443701D3*
X2053937D3*
X2993701Y2093701D3*
X3103937D3*
Y1793701D3*
X2993701D3*
X2753937Y1443701D3*
X2643701D3*
D44*
X1040551Y1269094D3*
X1639076D3*
D42*
X1338190Y1752166D3*
D40*
X2993701Y1468701D3*
Y1393898D3*
X3084252Y1431299D3*
D38*
X643701Y2518701D3*
Y2043701D3*
Y1493701D3*
Y1018701D3*
D36*
X2593701Y2893701D3*
X2118701D3*
X1068701Y706201D3*
X1543701D3*
X1968701Y699951D3*
X2443701D3*
X1868701Y1918701D3*
X2262402D3*
D40*
X2293701Y1218701D3*
Y1143898D3*
X2384252Y1181299D3*
D34*
X2643701Y2393701D3*
Y2342514D3*
X2726378Y2368108D3*
D52*
X3793701Y2093701D3*
X3903937D3*
D32*
X3793701Y2418701D3*
X3903937D3*
D52*
X3443701Y1443701D3*
X3333465D3*
X2643701Y1793701D3*
X2753937D3*
X2218701Y2393701D3*
X2328937D3*
X2993701D3*
X3103937D3*
X1868701D3*
X1978937D3*
X3343701Y2093701D3*
X3453937D3*
X3343701Y2393701D3*
X3453937D3*
X2643701Y2093701D3*
X2753937D3*
X1938583Y1168701D3*
X2048819D3*
X2643701D3*
X2753937D3*
D30*
X3643701Y1318701D3*
Y1268701D3*
Y1218701D3*
Y1168701D3*
X3856299D3*
Y1218701D3*
Y1268701D3*
Y1318701D3*
M02*
