G04 DipTrace 3.2.0.1*
G04 Top.gbr*
%MOIN*%
G04 #@! TF.FileFunction,Copper,L1,Top*
G04 #@! TF.Part,Single*
G04 #@! TA.AperFunction,Conductor*
%ADD13C,0.012992*%
%ADD14R,0.062992X0.070866*%
%ADD15R,0.11811X0.059055*%
%ADD16R,0.051181X0.059055*%
%ADD18R,0.177165X0.082677*%
%ADD19R,0.23622X0.19685*%
%ADD20R,0.137795X0.275591*%
%ADD22R,0.055118X0.03937*%
%ADD23R,0.275591X0.15748*%
%ADD24R,0.15748X0.275591*%
%ADD26R,0.037402X0.019685*%
%ADD27R,0.062992X0.106299*%
%ADD28R,0.07874X0.023622*%
%FSLAX26Y26*%
G04*
G70*
G90*
G75*
G01*
G04 Top*
%LPD*%
X3343701Y2393701D2*
D13*
X3337450D1*
Y2883415D1*
X3361220Y2907185D1*
X3774161D1*
X3800146Y2933169D1*
X3941732D1*
X4037450Y2837451D1*
Y1193699D1*
X3955168Y1111417D1*
X3759843D1*
X3702559Y1168701D1*
X3643701D1*
X1338190Y1752167D2*
Y2069684D1*
Y2243113D1*
X1364172Y2269094D1*
X1494882D1*
X3774161Y2907185D2*
X3800148Y2881198D1*
Y2806201D1*
X3643701Y1168701D2*
X3569752D1*
X3543766Y1142715D1*
Y469173D1*
X3512045Y437451D1*
X981727D1*
X925004Y494173D1*
Y825000D1*
X981205Y881201D1*
X1537451D1*
X1657345Y1001094D1*
X1964567D1*
X2417717D1*
X2443701Y975110D1*
X2693860D1*
X2812450Y1093701D1*
Y1556202D1*
X2743701Y1624951D1*
X2731201D1*
X2643701D1*
Y1443701D1*
X1338190Y2069684D2*
X1312207Y2043701D1*
X643701D1*
X2731201Y1624951D2*
X2830906Y1724656D1*
Y1793701D1*
Y1848622D1*
X2804921Y1874606D1*
X2806546D1*
X2643701Y2037451D1*
Y2093701D1*
X3453937Y1793701D2*
Y1443701D1*
X3443701D1*
X1537451Y881201D2*
Y706201D1*
X1543701D1*
X2443701Y975110D2*
Y699951D1*
X2830906Y1793701D2*
X2993701D1*
X1964567Y1001094D2*
X1938583Y1027079D1*
Y1168701D1*
X2643701Y1443701D2*
Y1168701D1*
Y1624951D2*
Y1793701D1*
X1494882Y2269094D2*
X1625344D1*
X2047131Y2690882D1*
X2092717D1*
X2118701Y2716866D1*
Y2893701D1*
X643701Y1018701D2*
X925004D1*
X981205Y962500D1*
Y881201D1*
X643701Y2043701D2*
X518701D1*
X456201Y1981201D1*
Y1018701D1*
X643701D1*
X3643701Y1268701D2*
X3687451D1*
X3702559Y1253593D1*
Y1168701D1*
X3443701Y1443701D2*
Y1294685D1*
X3469685Y1268701D1*
X3643701D1*
X2753937Y1443701D2*
Y1168701D1*
Y1122686D1*
X2712451Y1081201D1*
X2331201D1*
X2293701Y1118701D1*
Y1143898D1*
Y1443701D2*
X2287451D1*
X2344685Y1500934D1*
Y1536467D1*
X2312450Y1568701D1*
Y1635072D1*
X2262402Y1685121D1*
Y1918701D1*
X2312450Y1568701D2*
X2038780D1*
X1994685Y1524606D1*
Y1123966D1*
X2013927Y1104724D1*
X2081117D1*
X2195093Y1218701D1*
X2293701D1*
X1868701Y1918701D2*
Y2156201D1*
X2174951Y2462451D1*
X2324951D1*
X2349951Y2487451D1*
X3068699D1*
X3103937Y2452214D1*
Y2393701D1*
X2324951Y2462451D2*
X2328937Y2393701D1*
X1868701Y2156201D2*
Y2381201D1*
X1856201Y2393701D1*
X1868701D1*
X2753937Y1793701D2*
Y1827215D1*
X2699951Y1881201D1*
X2540933D1*
Y1469685D1*
X2514949Y1443701D1*
X2403937D1*
X2643701Y2393701D2*
X2543882D1*
X2462633Y2312451D1*
X2274951D1*
X2218701Y2368701D1*
Y2393701D1*
X2540933Y1881201D2*
Y2234150D1*
X2462633Y2312451D1*
X2726378Y2368108D2*
X2818950D1*
X2844543Y2393701D1*
X2993701D1*
Y2093701D2*
Y2061811D1*
X3154921Y1900591D1*
Y1712791D1*
X3128937Y1686807D1*
X2943058D1*
X2868701Y1612450D1*
Y687450D1*
X2699951Y518701D1*
X2337451D1*
X2259110Y597042D1*
Y857230D1*
X2191390Y924950D1*
X1929339D1*
X1818701Y814312D1*
Y643701D1*
X1695157Y520157D1*
X1248495D1*
X1068701Y699951D1*
Y706201D1*
X2993701Y2393701D2*
Y2093701D1*
X2643701Y2342514D2*
X2678537D1*
X2753937Y2267114D1*
Y2093701D1*
Y2045965D1*
X2899311Y1900591D1*
X3055562D1*
X3103937Y1852215D1*
Y1793701D1*
X2993701Y1468701D2*
Y1581201D1*
X3037451Y1624951D1*
X3149951D1*
X3218701Y1693701D1*
Y1903343D1*
X3103937Y2018106D1*
Y2093701D1*
X3343701D2*
Y2217441D1*
X3453937Y2327677D1*
Y2393701D1*
X3103937Y2093701D2*
X3343701D1*
X3333465Y1443701D2*
Y1431299D1*
X3084252D1*
X3333465Y1443701D2*
Y994685D1*
X3307480Y968701D1*
X3218701D1*
X3343701Y1793701D2*
X3333465D1*
Y1443701D1*
X3061220Y968701D2*
X2957463D1*
X2931479Y942717D1*
Y812451D1*
Y643979D1*
X2768701Y481201D1*
X2024951D1*
X1968701Y537451D1*
Y699951D1*
X2931479Y812451D2*
X3310487D1*
X3437450Y939415D1*
Y1181199D1*
X3474951Y1218701D1*
X3643701D1*
X3793701Y1793701D2*
Y1883967D1*
X3903937Y1994203D1*
Y2093701D1*
X3793701D2*
X3728543D1*
X3568701Y1933858D1*
Y1399951D1*
X3643701Y1324951D1*
X3656202D1*
X3649951Y1318701D1*
X3643701D1*
X3903937Y1793701D2*
X3906201D1*
Y1349950D1*
X3874951Y1318701D1*
X3856299D1*
Y1168701D2*
X3928937D1*
X3981201Y1220965D1*
Y2356201D1*
X3918701Y2418701D1*
X3903937D1*
Y2346063D1*
X3877953Y2320079D1*
X3600020D1*
X3574035Y2346063D1*
Y2738366D1*
X3493701Y2818701D1*
X3414173D1*
X3874951Y2806201D2*
Y2627807D1*
X3793701Y2546556D1*
Y2418701D1*
X3256693Y2818701D2*
X3124386D1*
X3016118Y2710433D1*
X2651969D1*
X2593701Y2768701D1*
Y2893701D1*
X2048819Y1168701D2*
Y1230068D1*
X2106201Y1287451D1*
X2343701D1*
X2393701Y1237451D1*
Y1181299D1*
X2384252D1*
X2106201Y1287451D2*
X2053937Y1339715D1*
Y1443701D1*
X1943701D2*
X1074951D1*
X1024951Y1493701D1*
X693571D1*
X643701D1*
X1074951Y1443701D2*
Y1269094D1*
X1040551D1*
X3856299Y1218701D2*
X3793701D1*
X3728543Y1283858D1*
Y1912127D1*
X3849950Y2033534D1*
Y2187451D1*
X3799950Y2237451D1*
X3574950D1*
X3530906Y2281496D1*
Y2448622D1*
X3504921Y2474606D1*
X3420669D1*
X3394685Y2448622D1*
Y2350936D1*
X3356201Y2312451D1*
X3270867D1*
X3218555Y2364764D1*
Y2443846D1*
X3090350Y2572051D1*
X2318701D1*
Y2968701D1*
X2193701Y3093701D1*
X2006201D1*
X1874950Y2962450D1*
Y2743701D1*
X1649951Y2518701D1*
X1222642D1*
X643701D1*
X1222642D2*
X1268701Y2472642D1*
Y2312450D1*
X1225345Y2269094D1*
X1140551D1*
X2318701Y2572051D2*
X2078302D1*
X1978937Y2472686D1*
Y2393701D1*
X3574950Y2237451D2*
Y2163730D1*
X3504921Y2093701D1*
X3453937D1*
D14*
X3793701Y1793701D3*
X3903937D3*
D15*
X3414173Y2818701D3*
X3256693D3*
D14*
X2293701Y1443701D3*
X2403937D3*
D16*
X3874951Y2806201D3*
X3800148D3*
D14*
X3343701Y1793701D3*
X3453937D3*
D15*
X3218701Y968701D3*
X3061220D3*
D18*
X1140551Y2269094D3*
X1494882D3*
D14*
X1943701Y1443701D3*
X2053937D3*
X2993701Y2093701D3*
X3103937D3*
Y1793701D3*
X2993701D3*
X2753937Y1443701D3*
X2643701D3*
D19*
X1040551Y1269094D3*
X1639076D3*
D20*
X1338190Y1752166D3*
D22*
X2993701Y1468701D3*
Y1393898D3*
X3084252Y1431299D3*
D23*
X643701Y2518701D3*
Y2043701D3*
Y1493701D3*
Y1018701D3*
D24*
X2593701Y2893701D3*
X2118701D3*
X1068701Y706201D3*
X1543701D3*
X1968701Y699951D3*
X2443701D3*
X1868701Y1918701D3*
X2262402D3*
D22*
X2293701Y1218701D3*
Y1143898D3*
X2384252Y1181299D3*
D26*
X2643701Y2393701D3*
Y2342514D3*
X2726378Y2368108D3*
D14*
X3793701Y2093701D3*
X3903937D3*
D27*
X3793701Y2418701D3*
X3903937D3*
D14*
X3443701Y1443701D3*
X3333465D3*
X2643701Y1793701D3*
X2753937D3*
X2218701Y2393701D3*
X2328937D3*
X2993701D3*
X3103937D3*
X1868701D3*
X1978937D3*
X3343701Y2093701D3*
X3453937D3*
X3343701Y2393701D3*
X3453937D3*
X2643701Y2093701D3*
X2753937D3*
X1938583Y1168701D3*
X2048819D3*
X2643701D3*
X2753937D3*
D28*
X3643701Y1318701D3*
Y1268701D3*
Y1218701D3*
Y1168701D3*
X3856299D3*
Y1218701D3*
Y1268701D3*
Y1318701D3*
M02*
