G04 DipTrace 3.2.0.1*
G04 TopPaste.gbr*
%MOIN*%
G04 #@! TF.FileFunction,Paste,Top*
G04 #@! TF.Part,Single*
%ADD31R,0.070866X0.015748*%
%ADD33R,0.055118X0.098425*%
%ADD35R,0.029528X0.011811*%
%ADD37R,0.149606X0.267717*%
%ADD39R,0.267717X0.149606*%
%ADD41R,0.047244X0.031496*%
%ADD43R,0.129921X0.267717*%
%ADD45R,0.228346X0.188976*%
%ADD47R,0.169291X0.074803*%
%ADD49R,0.043307X0.051181*%
%ADD51R,0.110236X0.051181*%
%ADD53R,0.055118X0.062992*%
%FSLAX26Y26*%
G04*
G70*
G90*
G75*
G01*
G04 TopPaste*
%LPD*%
D53*
X3793701Y1793701D3*
X3903937D3*
D51*
X3414173Y2818701D3*
X3256693D3*
D53*
X2293701Y1443701D3*
X2403937D3*
D49*
X3874951Y2806201D3*
X3800148D3*
D53*
X3343701Y1793701D3*
X3453937D3*
D51*
X3218701Y968701D3*
X3061220D3*
D47*
X1140551Y2269094D3*
X1494882D3*
D53*
X1943701Y1443701D3*
X2053937D3*
X2993701Y2093701D3*
X3103937D3*
Y1793701D3*
X2993701D3*
X2753937Y1443701D3*
X2643701D3*
D45*
X1040551Y1269094D3*
X1639076D3*
D43*
X1338190Y1752166D3*
D41*
X2993701Y1468701D3*
Y1393898D3*
X3084252Y1431299D3*
D39*
X643701Y2518701D3*
Y2043701D3*
Y1493701D3*
Y1018701D3*
D37*
X2593701Y2893701D3*
X2118701D3*
X1068701Y706201D3*
X1543701D3*
X1968701Y699951D3*
X2443701D3*
X1868701Y1918701D3*
X2262402D3*
D41*
X2293701Y1218701D3*
Y1143898D3*
X2384252Y1181299D3*
D35*
X2643701Y2393701D3*
Y2342514D3*
X2726378Y2368108D3*
D53*
X3793701Y2093701D3*
X3903937D3*
D33*
X3793701Y2418701D3*
X3903937D3*
D53*
X3443701Y1443701D3*
X3333465D3*
X2643701Y1793701D3*
X2753937D3*
X2218701Y2393701D3*
X2328937D3*
X2993701D3*
X3103937D3*
X1868701D3*
X1978937D3*
X3343701Y2093701D3*
X3453937D3*
X3343701Y2393701D3*
X3453937D3*
X2643701Y2093701D3*
X2753937D3*
X1938583Y1168701D3*
X2048819D3*
X2643701D3*
X2753937D3*
D31*
X3643701Y1318701D3*
Y1268701D3*
Y1218701D3*
Y1168701D3*
X3856299D3*
Y1218701D3*
Y1268701D3*
Y1318701D3*
M02*
